<svg xmlns="http://www.w3.org/2000/svg" viewBox="0 0 24 24" role="img" aria-label="GitHub">
  <path fill="currentColor" d="M12 1.7C6.3 1.7 1.7 6.3 1.7 12c0 4.6 3 8.5 7.2 9.8.5.1.7-.2.7-.5v-1.8c-2.9.6-3.5-1.2-3.5-1.2-.5-1.1-1.1-1.4-1.1-1.4-.9-.6.1-.6.1-.6 1 .1 1.6 1.1 1.6 1.1.9 1.6 2.4 1.1 2.9.9.1-.7.4-1.1.7-1.3-2.3-.3-4.7-1.2-4.7-5.1 0-1.1.4-2.1 1.1-2.8-.1-.3-.5-1.4.1-2.8 0 0 .9-.3 2.9 1.1.8-.2 1.7-.3 2.6-.3.9 0 1.8.1 2.6.3 2-1.4 2.9-1.1 2.9-1.1.6 1.4.2 2.5.1 2.8.7.8 1.1 1.7 1.1 2.8 0 4-2.4 4.8-4.7 5.1.4.3.8 1 .8 2v3c0 .3.2.6.8.5 4.2-1.3 7.2-5.2 7.2-9.8C22.3 6.3 17.7 1.7 12 1.7Z"/>
</svg>
